<svg width="39" height="39" viewBox="0 0 39 39" fill="none" xmlns="http://www.w3.org/2000/svg">
<path d="M21.375 0.84375V4.63125C28.7812 5.55 34.5 11.85 34.5 19.5C34.5 25.5187 30.9 30.75 25.65 33.15L21.375 28.875V38.25H30.75L28.4625 35.9625C34.3313 32.7563 38.25 26.55 38.25 19.5C38.25 9.7875 30.8438 1.78125 21.375 0.84375ZM17.625 0.75C13.9688 1.125 10.5 2.55 7.65 4.89375L10.3125 7.55625C12.4408 5.91559 14.9622 4.86178 17.625 4.5V0.75ZM4.875 7.65C2.55 10.5 1.125 13.9688 0.75 17.625H4.5C4.85625 14.9625 5.90625 12.4312 7.55625 10.3125L4.875 7.65ZM8.25 12V15.75H13.875V17.625H12C9.9375 17.625 8.25 19.3125 8.25 21.375V27H17.625V23.25H12V21.375H13.875C15.9563 21.375 17.625 19.7062 17.625 17.625V15.75C17.625 14.7554 17.2299 13.8016 16.5266 13.0984C15.8234 12.3951 14.8696 12 13.875 12H8.25ZM19.5 12V21.375H25.125V27H28.875V21.375H30.75V17.625H28.875V12H25.125V17.625H23.25V12H19.5ZM0.75 21.375C1.125 25.0312 2.56875 28.5 4.9125 31.35L7.575 28.6875C5.92877 26.5605 4.86857 24.0393 4.5 21.375H0.75ZM10.3313 31.4438L7.65 34.1063C10.4988 36.4322 13.9666 37.8728 17.625 38.25V34.5C14.9656 34.1464 12.4483 33.0916 10.3313 31.4438Z" fill="white"/>
</svg>
