<svg width="133" height="133" viewBox="0 0 133 133" fill="none" xmlns="http://www.w3.org/2000/svg">
<g id="clarity:license-line" opacity="0.2" clip-path="url(#clip0_1_526)">
<path id="Vector" d="M118.222 22.1665H14.7776C12.8179 22.1665 10.9385 22.945 9.55283 24.3307C8.16714 25.7163 7.38867 27.5957 7.38867 29.5554V103.444C7.38867 105.404 8.16714 107.283 9.55283 108.669C10.9385 110.055 12.8179 110.833 14.7776 110.833H70.1942L72.3001 108.247L75.7359 104.035L75.4034 103.444H14.7776V29.5554H118.222V61.1798C121.029 62.9967 123.524 65.2548 125.611 67.8668V29.5554C125.611 27.5957 124.832 25.7163 123.447 24.3307C122.061 22.945 120.182 22.1665 118.222 22.1665Z" fill="white"/>
<path id="Vector_2" d="M25.8613 44.3335H88.6669V50.2446H25.8613V44.3335Z" fill="white"/>
<path id="Vector_3" d="M25.8613 59.1113H66.5002V65.0224H25.8613V59.1113Z" fill="white"/>
<path id="Vector_4" d="M25.8613 84.9722H62.8058V90.8833H25.8613V84.9722Z" fill="white"/>
<path id="Vector_5" d="M101.449 63.655C96.7212 63.6175 92.0922 65.007 88.1667 67.642C84.2413 70.277 81.2021 74.0349 79.4462 78.4245C77.6903 82.8142 77.2995 87.6314 78.3249 92.2467C79.3502 96.862 81.7439 101.061 85.1933 104.294L78.0261 113.05L81.3511 126.387L94.8728 109.909C99.1529 111.175 103.708 111.175 107.988 109.909L121.51 126.387L124.835 113.05L117.667 104.294C121.117 101.061 123.511 96.862 124.536 92.2467C125.561 87.6314 125.17 82.8142 123.415 78.4245C121.659 74.0349 118.619 70.277 114.694 67.642C110.769 65.007 106.14 63.6175 101.412 63.655H101.449ZM101.449 103.112C98.3094 103.068 95.2529 102.097 92.6637 100.321C90.0745 98.5451 88.0681 96.0433 86.8969 93.1301C85.7256 90.217 85.4417 87.0226 86.0809 83.9486C86.7201 80.8745 88.2539 78.0581 90.4893 75.8533C92.7248 73.6486 95.5622 72.1539 98.6447 71.5573C101.727 70.9606 104.917 71.2886 107.814 72.5001C110.711 73.7115 113.185 75.7522 114.925 78.3657C116.665 80.9793 117.593 84.0489 117.594 87.1887C117.555 91.4381 115.834 95.499 112.808 98.4831C109.783 101.467 105.698 103.131 101.449 103.112Z" fill="white"/>
</g>
<defs>
<clipPath id="clip0_1_526">
<rect width="133" height="133" fill="white"/>
</clipPath>
</defs>
</svg>
