<svg width="72" height="72" viewBox="0 0 72 72" fill="none" xmlns="http://www.w3.org/2000/svg">
<g clip-path="url(#clip0_1_802)">
<path d="M45.6 69.6H43.2C43.2 70.0457 43.3241 70.4826 43.5584 70.8618C43.7928 71.2409 44.128 71.5473 44.5267 71.7466C44.9253 71.946 45.3716 72.0303 45.8155 71.9903C46.2594 71.9503 46.6834 71.7874 47.04 71.52L45.6 69.6ZM55.2 62.4L56.64 60.48C56.2246 60.1684 55.7193 60 55.2 60C54.6807 60 54.1754 60.1684 53.76 60.48L55.2 62.4ZM64.8 69.6L63.36 71.52C63.7166 71.7874 64.1406 71.9503 64.5845 71.9903C65.0284 72.0303 65.4747 71.946 65.8733 71.7466C66.272 71.5473 66.6072 71.2409 66.8416 70.8618C67.0759 70.4826 67.2 70.0457 67.2 69.6H64.8ZM55.2 52.8C52.0174 52.8 48.9652 51.5357 46.7147 49.2853C44.4643 47.0349 43.2 43.9826 43.2 40.8H38.4C38.4 45.2556 40.17 49.5288 43.3206 52.6794C46.4712 55.83 50.7444 57.6 55.2 57.6V52.8ZM67.2 40.8C67.2 43.9826 65.9357 47.0349 63.6853 49.2853C61.4348 51.5357 58.3826 52.8 55.2 52.8V57.6C59.6556 57.6 63.9288 55.83 67.0794 52.6794C70.23 49.5288 72 45.2556 72 40.8H67.2ZM55.2 28.8C58.3826 28.8 61.4348 30.0643 63.6853 32.3147C65.9357 34.5652 67.2 37.6174 67.2 40.8H72C72 36.3444 70.23 32.0712 67.0794 28.9206C63.9288 25.77 59.6556 24 55.2 24V28.8ZM55.2 24C50.7444 24 46.4712 25.77 43.3206 28.9206C40.17 32.0712 38.4 36.3444 38.4 40.8H43.2C43.2 37.6174 44.4643 34.5652 46.7147 32.3147C48.9652 30.0643 52.0174 28.8 55.2 28.8V24ZM43.2 50.4V69.6H48V50.4H43.2ZM47.04 71.52L56.64 64.32L53.76 60.48L44.16 67.68L47.04 71.52ZM53.76 64.32L63.36 71.52L66.24 67.68L56.64 60.48L53.76 64.32ZM67.2 69.6V50.4H62.4V69.6H67.2ZM72 24V7.2H67.2V24H72ZM64.8 0H7.2V4.8H64.8V0ZM0 7.2V64.8H4.8V7.2H0ZM7.2 72H38.4V67.2H7.2V72ZM0 64.8C0 66.7096 0.758569 68.5409 2.10883 69.8912C3.45909 71.2414 5.29044 72 7.2 72V67.2C6.56348 67.2 5.95303 66.9472 5.50294 66.4971C5.05286 66.047 4.8 65.4365 4.8 64.8H0ZM7.2 0C5.29044 0 3.45909 0.758569 2.10883 2.10883C0.758569 3.45909 0 5.29044 0 7.2H4.8C4.8 6.56348 5.05286 5.95303 5.50294 5.50294C5.95303 5.05286 6.56348 4.8 7.2 4.8V0ZM72 7.2C72 5.29044 71.2414 3.45909 69.8912 2.10883C68.5409 0.758569 66.7096 0 64.8 0V4.8C65.4365 4.8 66.047 5.05286 66.4971 5.50294C66.9472 5.95303 67.2 6.56348 67.2 7.2H72ZM14.4 24H38.4V19.2H14.4V24ZM14.4 38.4H28.8V33.6H14.4V38.4Z" fill="url(#paint0_linear_1_802)"/>
</g>
<defs>
<linearGradient id="paint0_linear_1_802" x1="0" y1="36" x2="106.2" y2="36" gradientUnits="userSpaceOnUse">
<stop stop-color="#DC5435"/>
<stop offset="1" stop-color="#E07B37"/>
</linearGradient>
<clipPath id="clip0_1_802">
<rect width="72" height="72" fill="white"/>
</clipPath>
</defs>
</svg>
