<svg width="61" height="67" viewBox="0 0 61 67" fill="none" xmlns="http://www.w3.org/2000/svg">
<path d="M38.9925 31.1958C40.4885 29.326 41.3117 27.0071 41.3296 24.6125C41.3296 21.7403 40.1886 18.9857 38.1577 16.9548C36.1267 14.9239 33.3722 13.7829 30.5 13.7829C27.6278 13.7829 24.8733 14.9239 22.8423 16.9548C20.8114 18.9857 19.6704 21.7403 19.6704 24.6125C19.6883 27.0071 20.5115 29.326 22.0075 31.1958C19.0734 32.9814 16.7714 35.6401 15.4242 38.7996C15.2356 39.2004 15.1299 39.6352 15.1134 40.0779C15.0968 40.5206 15.1699 40.9621 15.328 41.3759C15.4862 41.7897 15.7262 42.1673 16.0338 42.4861C16.3414 42.8049 16.7102 43.0584 17.118 43.2313C17.5259 43.4042 17.9645 43.493 18.4075 43.4924C18.8505 43.4917 19.2888 43.4017 19.6961 43.2276C20.1035 43.0535 20.4716 42.799 20.7782 42.4793C21.0849 42.1596 21.3239 41.7813 21.4808 41.3671C22.2374 39.5986 23.4939 38.0896 25.0961 37.0253C26.6984 35.9611 28.5765 35.3879 30.5 35.3762C32.4291 35.3815 34.3143 35.9517 35.923 37.0163C37.5317 38.081 38.7933 39.5935 39.5521 41.3671C39.8041 41.962 40.2256 42.4697 40.7641 42.8267C41.3026 43.1838 41.9343 43.3745 42.5804 43.375C43.0209 43.3668 43.456 43.2775 43.8642 43.1116C44.6669 42.7707 45.3015 42.125 45.6286 41.3165C45.9557 40.508 45.9485 39.6028 45.6088 38.7996C44.2528 35.6354 41.9389 32.9761 38.9925 31.1958ZM30.5 28.7929C29.6588 28.7929 28.8365 28.543 28.1375 28.0749C27.4385 27.6069 26.8943 26.9417 26.5739 26.1639C26.2535 25.3861 26.1714 24.5306 26.3379 23.7061C26.5044 22.8815 26.9121 22.125 27.5093 21.5324C28.1064 20.9399 28.8661 20.5381 29.692 20.378C30.5178 20.2179 31.3726 20.3067 32.1479 20.6331C32.9232 20.9596 33.5841 21.509 34.0467 22.2116C34.5093 22.9142 34.7528 23.7384 34.7463 24.5796C34.7376 25.7 34.2864 26.7716 33.491 27.5609C32.6956 28.3501 31.6205 28.7929 30.5 28.7929ZM50.25 0.583313H10.75C8.13099 0.583313 5.61924 1.62371 3.76732 3.47563C1.9154 5.32756 0.875 7.8393 0.875 10.4583V46.6666C0.875 49.2857 1.9154 51.7974 3.76732 53.6493C5.61924 55.5013 8.13099 56.5416 10.75 56.5416H19.2754L28.1629 65.4621C28.4705 65.7671 28.8353 66.0085 29.2363 66.1723C29.6374 66.3361 30.0668 66.4192 30.5 66.4166C31.2846 66.4167 32.0433 66.1365 32.6396 65.6266L43.2388 56.5416H50.25C52.869 56.5416 55.3808 55.5013 57.2327 53.6493C59.0846 51.7974 60.125 49.2857 60.125 46.6666V10.4583C60.125 7.8393 59.0846 5.32756 57.2327 3.47563C55.3808 1.62371 52.869 0.583313 50.25 0.583313ZM53.5417 46.6666C53.5417 47.5396 53.1949 48.3769 52.5776 48.9942C51.9603 49.6115 51.123 49.9583 50.25 49.9583H42.0208C41.2363 49.9583 40.4775 50.2384 39.8813 50.7483L30.6646 58.6483L22.9621 50.9129C22.6545 50.6078 22.2897 50.3665 21.8887 50.2026C21.4876 50.0388 21.0582 49.9558 20.625 49.9583H10.75C9.877 49.9583 9.03975 49.6115 8.42244 48.9942C7.80513 48.3769 7.45833 47.5396 7.45833 46.6666V10.4583C7.45833 9.58531 7.80513 8.74806 8.42244 8.13075C9.03975 7.51345 9.877 7.16665 10.75 7.16665H50.25C51.123 7.16665 51.9603 7.51345 52.5776 8.13075C53.1949 8.74806 53.5417 9.58531 53.5417 10.4583V46.6666Z" fill="url(#paint0_linear_94_1384)"/>
<defs>
<linearGradient id="paint0_linear_94_1384" x1="0.875" y1="33.5" x2="88.2687" y2="33.5" gradientUnits="userSpaceOnUse">
<stop stop-color="#DC5435"/>
<stop offset="1" stop-color="#E07B37"/>
</linearGradient>
</defs>
</svg>
