<svg width="21" height="21" viewBox="0 0 21 21" fill="none" xmlns="http://www.w3.org/2000/svg">
<g id="Facebook svg" clip-path="url(#clip0_1_4868)">
<g id="g10">
<g id="g12">
<path id="path14" d="M21 10.5001C21 4.70112 16.299 0.000114441 10.5 0.000114441C4.70101 0.000114441 0 4.70112 0 10.5001C0 15.741 3.8397 20.0848 8.85938 20.8726V13.5353H6.19336V10.5001H8.85938V8.18683C8.85938 5.55527 10.427 4.10168 12.8254 4.10168C13.9742 4.10168 15.1758 4.30676 15.1758 4.30676V6.89074H13.8518C12.5474 6.89074 12.1406 7.70012 12.1406 8.53048V10.5001H15.0527L14.5872 13.5353H12.1406V20.8726C17.1603 20.0848 21 15.741 21 10.5001Z" fill="#1877F2"/>
<path id="path16" d="M14.5872 13.5352L15.0527 10.5H12.1406V8.53037C12.1406 7.70001 12.5474 6.89063 13.8518 6.89063H15.1758V4.30664C15.1758 4.30664 13.9742 4.10156 12.8254 4.10156C10.427 4.10156 8.85938 5.55516 8.85938 8.18672V10.5H6.19336V13.5352H8.85938V20.8724C9.39395 20.9563 9.94186 21 10.5 21C11.0581 21 11.606 20.9563 12.1406 20.8724V13.5352H14.5872Z" fill="white"/>
</g>
</g>
</g>
<defs>
<clipPath id="clip0_1_4868">
<rect width="21" height="21" fill="white"/>
</clipPath>
</defs>
</svg>
