<svg width="35" height="35" viewBox="0 0 35 35" fill="none" xmlns="http://www.w3.org/2000/svg">
<path d="M19.6875 23.3333C20.2915 23.3333 20.7812 23.823 20.7812 24.4271C20.7812 25.0311 20.2915 25.5208 19.6875 25.5208H15.3125C14.7085 25.5208 14.2188 25.0311 14.2188 24.4271C14.2188 23.823 14.7085 23.3333 15.3125 23.3333H19.6875ZM24.0625 16.0417C24.6665 16.0417 25.1562 16.5314 25.1562 17.1354C25.1562 17.7395 24.6665 18.2292 24.0625 18.2292H10.9375C10.3334 18.2292 9.84375 17.7395 9.84375 17.1354C9.84375 16.5314 10.3334 16.0417 10.9375 16.0417H24.0625ZM28.4375 8.75C29.0415 8.75 29.5312 9.23969 29.5312 9.84375C29.5312 10.4478 29.0415 10.9375 28.4375 10.9375H6.5625C5.95844 10.9375 5.46875 10.4478 5.46875 9.84375C5.46875 9.23969 5.95844 8.75 6.5625 8.75H28.4375Z" fill="#252525"/>
</svg>
