<svg width="23" height="17" viewBox="0 0 23 17" fill="none" xmlns="http://www.w3.org/2000/svg">
<g id="logos:google-gmail" clip-path="url(#clip0_13_44)">
<path id="Vector" d="M5.22729 16.9162V8.20394L2.47133 5.73207L0 4.36035V15.3787C0 16.2294 0.703027 16.9162 1.56822 16.9162H5.22729Z" fill="white"/>
<path id="Vector_2" d="M17.7734 16.9161H21.4325C22.3003 16.9161 23.0007 16.2268 23.0007 15.3786V4.36035L20.2016 5.93149L17.7734 8.20385V16.9161Z" fill="white"/>
<path id="Vector_3" d="M5.22657 8.20423L4.85156 4.80009L5.22657 1.54199L11.4993 6.15437L17.772 1.54199L18.1915 4.62419L17.772 8.20423L11.4993 12.8166L5.22657 8.20423Z" fill="white"/>
<path id="Vector_4" d="M17.7734 1.54178V8.20401L23.0007 4.36043V2.31048C23.0007 0.409206 20.787 -0.674654 19.2372 0.465579L17.7734 1.54178Z" fill="white"/>
<path id="Vector_5" d="M0 4.36047L2.40413 6.12829L5.22729 8.20405V1.54182L3.76355 0.465619C2.21105 -0.674702 0 0.409246 0 2.31043V4.36038V4.36047Z" fill="white"/>
</g>
<defs>
<clipPath id="clip0_13_44">
<rect width="23" height="17" fill="white"/>
</clipPath>
</defs>
</svg>
