<svg width="37" height="31" viewBox="0 0 37 31" fill="none" xmlns="http://www.w3.org/2000/svg">
<g id="LinkedIn svg" clip-path="url(#clip0_1_3064)">
<path id="Path 2525" d="M35.1844 28.999C35.2638 28.9998 35.3425 28.9845 35.4156 28.9541C35.4887 28.9238 35.5547 28.879 35.6095 28.8225C35.6643 28.766 35.7067 28.6991 35.7341 28.6259C35.7615 28.5526 35.7732 28.4747 35.7686 28.3968C35.7686 27.9697 35.5064 27.7656 34.9685 27.7656H34.0994V30.0017H34.4263V29.027H34.828L34.8372 29.0388L35.4606 30.0017H35.8102L35.1394 29.0051L35.1844 28.999ZM34.8063 28.775H34.4272V28.019H34.9077C35.1559 28.019 35.4388 28.0589 35.4388 28.3783C35.4388 28.7456 35.1525 28.775 34.8043 28.775" fill="#0A66C2"/>
<path id="Path 2520" d="M26.6567 26.1966H22.0211V19.0623C22.0211 17.3611 21.9902 15.1711 19.6101 15.1711C17.1957 15.1711 16.8263 17.0247 16.8263 18.9385V26.1962H12.1907V11.5252H16.6409V13.5301H16.7032C17.1486 12.7818 17.7921 12.1662 18.5653 11.7488C19.3385 11.3315 20.2125 11.1281 21.094 11.1603C25.7924 11.1603 26.6587 14.1973 26.6587 18.1484L26.6567 26.1966ZM6.96018 9.51976C6.42813 9.51985 5.90798 9.3649 5.46554 9.07449C5.0231 8.78407 4.67825 8.37124 4.47456 7.88821C4.27086 7.40518 4.21748 6.87363 4.32118 6.36079C4.42489 5.84795 4.68102 5.37685 5.05717 5.00705C5.43332 4.63726 5.91261 4.38539 6.43442 4.28329C6.95623 4.18119 7.49712 4.23345 7.98871 4.43346C8.4803 4.63347 8.9005 4.97224 9.19617 5.40694C9.49184 5.84163 9.64971 6.35274 9.64981 6.87561C9.64987 7.22278 9.58034 7.56657 9.44521 7.88733C9.31008 8.20811 9.112 8.49958 8.86225 8.74511C8.61249 8.99064 8.31595 9.18542 7.98959 9.31834C7.66324 9.45125 7.31345 9.5197 6.96018 9.51976ZM9.27798 26.1966H4.63754V11.5252H9.27798V26.1966ZM28.9678 0.00185057H2.30815C1.70305 -0.00486011 1.11997 0.224789 0.687076 0.640332C0.254183 1.05588 0.00689662 1.62332 -0.000488281 2.21797V28.5262C0.00664386 29.1211 0.253785 29.6889 0.686663 30.1049C1.11954 30.5209 1.70275 30.751 2.30815 30.7446H28.9678C29.5744 30.7521 30.1592 30.5227 30.5938 30.1067C31.0284 29.6908 31.2772 29.1223 31.2856 28.5262V2.21607C31.277 1.62024 31.028 1.05215 30.5934 0.63662C30.1588 0.221086 29.5741 -0.00790662 28.9678 -4.83691e-05" fill="#0A66C2"/>
<path id="Path 2526" d="M34.846 26.7695C34.282 26.7749 33.7431 26.9995 33.3472 27.3942C32.9512 27.789 32.7305 28.3218 32.7332 28.8761C32.7359 29.4303 32.9619 29.961 33.3617 30.352C33.7614 30.743 34.3025 30.9625 34.8665 30.9625C35.4305 30.9625 35.9716 30.743 36.3714 30.352C36.7712 29.961 36.9971 29.4303 36.9999 28.8761C37.0026 28.3218 36.7818 27.789 36.3859 27.3942C35.9899 26.9995 35.451 26.7749 34.887 26.7695H34.846ZM34.846 30.7225C34.4761 30.7285 34.1126 30.6266 33.8016 30.4297C33.4906 30.2327 33.246 29.9496 33.0988 29.616C32.9515 29.2825 32.9082 28.9135 32.9743 28.5558C33.0405 28.198 33.2131 27.8676 33.4703 27.6062C33.7275 27.3449 34.0578 27.1644 34.4194 27.0875C34.781 27.0106 35.1578 27.0409 35.5019 27.1744C35.846 27.308 36.1421 27.5388 36.3528 27.8377C36.5634 28.1366 36.6791 28.4902 36.6853 28.8537C36.6853 28.8642 36.6853 28.8741 36.6853 28.8846C36.6956 29.3615 36.5128 29.8229 36.177 30.1674C35.8413 30.5119 35.38 30.7112 34.8948 30.7215H34.8465" fill="#0A66C2"/>
</g>
<defs>
<clipPath id="clip0_1_3064">
<rect width="37" height="31" fill="white"/>
</clipPath>
</defs>
</svg>
