<svg width="26" height="26" viewBox="0 0 26 26" fill="none" xmlns="http://www.w3.org/2000/svg">
<path d="M11.25 15.25L8.53125 12.5312C8.30208 12.3021 8.02083 12.1875 7.6875 12.1875C7.35417 12.1875 7.0625 12.3125 6.8125 12.5625C6.58333 12.7917 6.46875 13.0833 6.46875 13.4375C6.46875 13.7917 6.58333 14.0833 6.8125 14.3125L10.375 17.875C10.6042 18.1042 10.8958 18.2188 11.25 18.2188C11.6042 18.2188 11.8958 18.1042 12.125 17.875L19.2188 10.7812C19.4479 10.5521 19.5625 10.2708 19.5625 9.9375C19.5625 9.60417 19.4375 9.3125 19.1875 9.0625C18.9583 8.83333 18.6667 8.71875 18.3125 8.71875C17.9583 8.71875 17.6667 8.83333 17.4375 9.0625L11.25 15.25ZM13 25.5C11.2708 25.5 9.64583 25.1717 8.125 24.515C6.60417 23.8592 5.28125 22.9688 4.15625 21.8438C3.03125 20.7188 2.14083 19.3958 1.485 17.875C0.828333 16.3542 0.5 14.7292 0.5 13C0.5 11.2708 0.828333 9.64583 1.485 8.125C2.14083 6.60417 3.03125 5.28125 4.15625 4.15625C5.28125 3.03125 6.60417 2.14042 8.125 1.48375C9.64583 0.827917 11.2708 0.5 13 0.5C14.7292 0.5 16.3542 0.827917 17.875 1.48375C19.3958 2.14042 20.7188 3.03125 21.8438 4.15625C22.9688 5.28125 23.8592 6.60417 24.515 8.125C25.1717 9.64583 25.5 11.2708 25.5 13C25.5 14.7292 25.1717 16.3542 24.515 17.875C23.8592 19.3958 22.9688 20.7188 21.8438 21.8438C20.7188 22.9688 19.3958 23.8592 17.875 24.515C16.3542 25.1717 14.7292 25.5 13 25.5Z" fill="url(#paint0_linear_1_637)"/>
<defs>
<linearGradient id="paint0_linear_1_637" x1="0.5" y1="13" x2="37.375" y2="13" gradientUnits="userSpaceOnUse">
<stop stop-color="#DC5435"/>
<stop offset="1" stop-color="#E07B37"/>
</linearGradient>
</defs>
</svg>
