<svg width="72" height="72" viewBox="0 0 72 72" fill="none" xmlns="http://www.w3.org/2000/svg">
<g id="fluent-mdl2:repair" opacity="0.1" clip-path="url(#clip0_1_2257)">
<path id="Vector" d="M67.8516 7.73438C68.4609 8.78906 69.0117 9.79688 69.5039 10.7578C69.9961 11.7188 70.4414 12.6914 70.8398 13.6758C71.2383 14.6602 71.5195 15.6797 71.6836 16.7344C71.8477 17.7891 71.9531 18.9609 72 20.25C72 22.1016 71.7656 23.8828 71.2969 25.5938C70.8281 27.3047 70.1484 28.9219 69.2578 30.4453C68.3672 31.9688 67.3008 33.3398 66.0586 34.5586C64.8164 35.7773 63.4453 36.832 61.9453 37.7227C60.4453 38.6133 58.8398 39.293 57.1289 39.7617C55.418 40.2305 53.625 40.4766 51.75 40.5C51.2109 40.5 50.6719 40.4766 50.1328 40.4297C49.5938 40.3828 49.043 40.3125 48.4805 40.2188L20.1445 68.5547C19.0195 69.6797 17.7422 70.5352 16.3125 71.1211C14.8828 71.707 13.3711 72 11.7773 72C10.1602 72 8.63672 71.6953 7.20703 71.0859C5.77734 70.4766 4.53516 69.6328 3.48047 68.5547C2.42578 67.4766 1.58203 66.2227 0.949219 64.793C0.316406 63.3633 0 61.8398 0 60.2227C0 58.6523 0.292969 57.1523 0.878906 55.7227C1.46484 54.293 2.32031 53.0039 3.44531 51.8555L31.7812 23.5195C31.6875 22.9805 31.6172 22.4414 31.5703 21.9023C31.5234 21.3633 31.5 20.8125 31.5 20.25C31.5 18.3984 31.7344 16.6172 32.2031 14.9062C32.6719 13.1953 33.3516 11.5781 34.2422 10.0547C35.1328 8.53125 36.1992 7.16016 37.4414 5.94141C38.6836 4.72266 40.0547 3.66797 41.5547 2.77734C43.0547 1.88672 44.6602 1.20703 46.3711 0.738281C48.082 0.269531 49.875 0.0234375 51.75 0C53.0156 0 54.1758 0.09375 55.2305 0.28125C56.2852 0.46875 57.3164 0.761719 58.3242 1.16016C59.332 1.55859 60.3047 1.99219 61.2422 2.46094C62.1797 2.92969 63.1875 3.49219 64.2656 4.14844L50.4141 18L54 21.5859L67.8516 7.73438ZM51.75 36C53.9297 36 55.9688 35.5898 57.8672 34.7695C59.7656 33.9492 61.4297 32.8242 62.8594 31.3945C64.2891 29.9648 65.4141 28.3008 66.2344 26.4023C67.0547 24.5039 67.4766 22.4531 67.5 20.25C67.5 18.5391 67.2188 16.8867 66.6562 15.293L54 27.9141L44.0859 18L56.707 5.34375C55.1133 4.78125 53.4609 4.5 51.75 4.5C49.5703 4.5 47.5312 4.91016 45.6328 5.73047C43.7344 6.55078 42.0703 7.67578 40.6406 9.10547C39.2109 10.5352 38.0859 12.1992 37.2656 14.0977C36.4453 15.9961 36.0234 18.0469 36 20.25C36 21.0703 36.0703 21.8672 36.2109 22.6406C36.3516 23.4141 36.5156 24.1875 36.7031 24.9609L6.64453 55.0547C5.96484 55.7344 5.4375 56.5195 5.0625 57.4102C4.6875 58.3008 4.5 59.2383 4.5 60.2227C4.5 61.207 4.6875 62.1445 5.0625 63.0352C5.4375 63.9258 5.96484 64.6992 6.64453 65.3555C7.32422 66.0117 8.09766 66.5273 8.96484 66.9023C9.83203 67.2773 10.7695 67.4766 11.7773 67.5C12.7617 67.5 13.6992 67.3125 14.5898 66.9375C15.4805 66.5625 16.2656 66.0352 16.9453 65.3555L47.0391 35.2969C47.8125 35.4844 48.5859 35.6484 49.3594 35.7891C50.1328 35.9297 50.9297 36 51.75 36Z" fill="white"/>
</g>
<defs>
<clipPath id="clip0_1_2257">
<rect width="72" height="72" fill="white"/>
</clipPath>
</defs>
</svg>
