<svg width="101" height="97" viewBox="0 0 101 97" fill="none" xmlns="http://www.w3.org/2000/svg">
<path opacity="0.2" d="M79.9582 40.4168V8.0835H29.4582V56.5835H58.9165V28.2918H8.4165V76.7918H42.0832M58.9165 92.9585L84.1665 68.7085M88.3748 56.5835C86.7102 56.5835 85.0829 57.0576 83.6988 57.9458C82.3147 58.834 81.2359 60.0964 80.5989 61.5735C79.9618 63.0505 79.7951 64.6758 80.1199 66.2438C80.4447 67.8118 81.2463 69.2521 82.4234 70.3826C83.6005 71.5131 85.1002 72.2829 86.7328 72.5948C88.3655 72.9067 90.0578 72.7467 91.5958 72.1349C93.1337 71.523 94.4482 70.487 95.373 69.1577C96.2979 67.8284 96.7915 66.2656 96.7915 64.6668" stroke="white" stroke-width="4"/>
</svg>
