<svg width="46" height="37" viewBox="0 0 46 37" fill="none" xmlns="http://www.w3.org/2000/svg">
<path d="M40.4445 9.13212C40.4719 9.5301 40.4719 9.92809 40.4719 10.3297C40.4719 22.5682 31.1731 36.6829 14.1698 36.6829V36.6756C9.14691 36.6829 4.22841 35.2414 0 32.5233C0.730362 32.6114 1.46438 32.6554 2.20024 32.6572C6.36275 32.6609 10.4063 31.2615 13.681 28.6847C9.72534 28.6095 6.25658 26.0254 5.04481 22.2528C6.43048 22.5205 7.85825 22.4655 9.2183 22.0932C4.90569 21.2202 1.80302 17.4238 1.80302 13.0148C1.80302 12.9744 1.80302 12.9359 1.80302 12.8974C3.08802 13.6145 4.52678 14.0125 5.99849 14.0565C1.93665 11.3366 0.6846 5.92257 3.13744 1.68962C7.8308 7.47599 14.7555 10.9937 22.1891 11.366C21.4441 8.14908 22.4618 4.77813 24.8634 2.51677C28.5866 -0.989895 34.4423 -0.81016 37.9422 2.91842C40.0125 2.50944 41.9967 1.74831 43.8126 0.669903C43.1225 2.81388 41.6782 4.63508 39.7489 5.79235C41.5812 5.57593 43.3714 5.08441 45.0573 4.3343C43.8162 6.19767 42.253 7.82079 40.4445 9.13212Z" fill="#1D9BF0"/>
</svg>
