<svg width="55" height="54" viewBox="0 0 55 54" fill="none" xmlns="http://www.w3.org/2000/svg">
<rect x="0.5" y="0.5" width="47.7333" height="47.7333" stroke="black"/>
<path d="M42.6418 7.30989V41.4232C42.6418 41.7463 42.5134 42.0562 42.285 42.2847C42.0565 42.5132 41.7466 42.6416 41.4235 42.6416H7.31013C6.98701 42.6416 6.67712 42.5132 6.44864 42.2847C6.22016 42.0562 6.0918 41.7463 6.0918 41.4232V7.30989C6.0918 6.98676 6.22016 6.67688 6.44864 6.44839C6.67712 6.21991 6.98701 6.09155 7.31013 6.09155H41.4235C41.7466 6.09155 42.0565 6.21991 42.285 6.44839C42.5134 6.67688 42.6418 6.98676 42.6418 7.30989Z" stroke="black" stroke-linecap="round" stroke-linejoin="round"/>
<path d="M16.2445 12.1831C16.2445 12.1831 11.1681 18.2748 16.2445 24.3664C21.3208 30.4581 16.2445 36.5498 16.2445 36.5498M24.3667 12.1831C24.3667 12.1831 19.2903 18.2748 24.3667 24.3664C29.4431 30.4581 24.3667 36.5498 24.3667 36.5498M32.4889 12.1831C32.4889 12.1831 27.4125 18.2748 32.4889 24.3664C37.5653 30.4581 32.4889 36.5498 32.4889 36.5498" stroke="black" stroke-width="2" stroke-linecap="round" stroke-linejoin="round"/>
<rect x="0.5" y="0.5" width="47.7333" height="47.7333" stroke="black"/>
<path d="M42.6418 7.30989V41.4232C42.6418 41.7463 42.5134 42.0562 42.285 42.2847C42.0565 42.5132 41.7466 42.6416 41.4235 42.6416H7.31013C6.98701 42.6416 6.67712 42.5132 6.44864 42.2847C6.22016 42.0562 6.0918 41.7463 6.0918 41.4232V7.30989C6.0918 6.98676 6.22016 6.67688 6.44864 6.44839C6.67712 6.21991 6.98701 6.09155 7.31013 6.09155H41.4235C41.7466 6.09155 42.0565 6.21991 42.285 6.44839C42.5134 6.67688 42.6418 6.98676 42.6418 7.30989Z" stroke="black" stroke-width="2" stroke-linecap="round" stroke-linejoin="round"/>
<path d="M16.2445 12.1831C16.2445 12.1831 11.1681 18.2748 16.2445 24.3664C21.3208 30.4581 16.2445 36.5498 16.2445 36.5498M24.3667 12.1831C24.3667 12.1831 19.2903 18.2748 24.3667 24.3664C29.4431 30.4581 24.3667 36.5498 24.3667 36.5498M32.4889 12.1831C32.4889 12.1831 27.4125 18.2748 32.4889 24.3664C37.5653 30.4581 32.4889 36.5498 32.4889 36.5498" stroke="black" stroke-linecap="round" stroke-linejoin="round"/>
<rect x="28.2109" y="25.3445" width="25.7556" height="27.6667" rx="4.5" fill="white" stroke="black"/>
<path d="M48.4856 37.5289L48.5558 37.9459H48.9787H51.0999V39.4542H48.9787H48.5558L48.4856 39.8712C48.3101 40.9136 47.8999 41.9024 47.2861 42.763L47.0403 43.1076L47.3396 43.4068L48.8409 44.9082L47.7744 45.9747L46.2718 44.4741L45.9726 44.1753L45.6283 44.4208C44.768 45.0341 43.7796 45.4438 42.7377 45.6191L42.3207 45.6893V46.1122V48.2334H40.8124V46.1122V45.6893L40.3954 45.6191C39.353 45.4437 38.3642 45.0335 37.5037 44.4196L37.1591 44.1738L36.8598 44.4731L35.3584 45.9745L34.2919 44.908L35.7925 43.4054L36.0912 43.1062L35.8459 42.7619C35.2327 41.9015 34.8229 40.9131 34.6475 39.8712L34.5772 39.4542H34.1544H32.0332V37.9459H34.1544H34.5772L34.6475 37.529C34.8231 36.4866 35.2333 35.4978 35.847 34.6372L36.0928 34.2926L35.7935 33.9933L34.2921 32.492L35.3586 31.4254L36.8613 32.926L37.1605 33.2248L37.5048 32.9794C38.3651 32.3661 39.3535 31.9563 40.3953 31.781L40.8124 31.7109V31.288V29.1667H42.3207V31.288V31.7108L42.7377 31.781C43.7801 31.9565 44.7689 32.3667 45.6294 32.9805L45.974 33.2264L46.2733 32.927L47.7747 31.4257L48.8412 32.4922L47.3406 33.9948L47.0418 34.294L47.2872 34.6383C47.9005 35.4987 48.3102 36.4871 48.4856 37.5289ZM41.5665 44.2167L41.5672 44.2167C43.0295 44.2149 44.4315 43.6332 45.4656 42.5991C46.4996 41.5651 47.0814 40.1631 47.0832 38.7007V38.7001C47.0832 37.609 46.7597 36.5424 46.1535 35.6352C45.5473 34.728 44.6857 34.0209 43.6777 33.6033C42.6696 33.1858 41.5604 33.0766 40.4903 33.2894C39.4202 33.5023 38.4372 34.0277 37.6657 34.7992C36.8941 35.5707 36.3687 36.5537 36.1559 37.6238C35.943 38.694 36.0523 39.8032 36.4698 40.8112C36.8873 41.8193 37.5944 42.6808 38.5016 43.287C39.4089 43.8932 40.4754 44.2167 41.5665 44.2167Z" fill="black" stroke="black"/>
</svg>
