<svg width="38" height="38" viewBox="0 0 38 38" fill="none" xmlns="http://www.w3.org/2000/svg">
<path d="M9.5 4.75V9.5H4.75V4.75H9.5ZM2.375 2.375V11.875H11.875V2.375H2.375ZM21.375 8.3125V13.0625H16.625V8.3125H21.375ZM14.25 5.9375V15.4375H23.75V5.9375H14.25ZM9.5 19V23.75H4.75V19H9.5ZM2.375 16.625V26.125H11.875V16.625H2.375Z" fill="#252525"/>
<path d="M26.125 11.875V19H19V26.125H11.875V35.625H35.625V11.875H26.125ZM21.375 21.375H26.125V26.125H21.375V21.375ZM19 33.25H14.25V28.5H19V33.25ZM26.125 33.25H21.375V28.5H26.125V33.25ZM33.25 33.25H28.5V28.5H33.25V33.25ZM33.25 26.125H28.5V21.375H33.25V26.125ZM28.5 19V14.25H33.25V19H28.5Z" fill="#252525"/>
</svg>
