<svg width="45" height="41" viewBox="0 0 45 41" fill="none" xmlns="http://www.w3.org/2000/svg">
<g clip-path="url(#clip0_1_949)">
<path d="M21.0986 20.0941C22.9116 20.0941 22.9116 22.8081 21.0986 22.8081C19.2916 22.8081 19.2916 20.0941 21.0986 20.0941ZM28.4376 1.47907C30.2446 1.47907 30.2446 4.19307 28.4376 4.19307C26.6246 4.19307 26.6246 1.47907 28.4376 1.47907ZM4.42661 4.14107H25.9166C26.214 4.71645 26.6991 5.17289 27.2915 5.43471C27.884 5.69652 28.5481 5.74797 29.1737 5.58053C29.7994 5.41309 30.3491 5.03682 30.7315 4.51411C31.114 3.9914 31.3063 3.35366 31.2765 2.70665C31.2468 2.05964 30.9968 1.44224 30.568 0.956827C30.1392 0.471414 29.5573 0.147156 28.9189 0.0378272C28.2805 -0.0715018 27.6239 0.0406665 27.0581 0.355731C26.4922 0.670795 26.051 1.16983 25.8076 1.77007H4.42761C2.35461 1.77007 0.724609 3.34807 0.724609 5.35907V28.2341C0.724609 30.2761 2.42261 32.0001 4.42761 32.0001H27.3026C29.3186 32.0001 30.9536 30.3121 30.9536 28.2341V14.6611C30.9536 12.6191 29.3186 10.9581 27.3026 10.9581H13.7346C11.6616 10.9581 9.91161 12.6561 9.91161 14.6611V18.9271C9.91161 20.9061 11.6256 22.5161 13.7346 22.5161H18.4746C18.6858 23.0393 19.0485 23.4875 19.5162 23.8031C19.984 24.1186 20.5354 24.2872 21.0996 24.2871C21.8526 24.2871 22.5747 23.988 23.1071 23.4555C23.6395 22.9231 23.9386 22.201 23.9386 21.4481C23.9386 20.6951 23.6395 19.973 23.1071 19.4406C22.5747 18.9082 21.8526 18.6091 21.0996 18.6091C20.5797 18.6098 20.07 18.7534 19.6263 19.0243C19.1825 19.2952 18.8218 19.683 18.5836 20.1451H13.7346C13.0366 20.1451 12.2816 19.6811 12.2816 18.9261V14.6601C12.2816 13.9621 12.9746 13.3271 13.7346 13.3271H27.3026C28.0216 13.3271 28.5836 13.9161 28.5836 14.6601V28.2331C28.5836 28.9881 27.9946 29.6291 27.3026 29.6291H4.42761C3.71961 29.6291 3.09461 28.9731 3.09461 28.2331V5.35807C3.09461 4.66507 3.67261 4.14407 4.42761 4.14407L4.42661 4.14107Z" fill="#252525"/>
</g>
<rect x="22" y="17" width="23" height="18" rx="3" fill="white"/>
<path d="M36.636 32.9761C36.6302 32.2029 36.3196 31.4631 35.7716 30.9175C35.2236 30.372 34.4824 30.0647 33.7091 30.0624H33.0266V23.548C33.0322 23.192 32.9159 22.8448 32.6971 22.5639C32.4783 22.2831 32.17 22.0854 31.8235 22.0036C31.6004 21.9561 31.3696 21.9589 31.1477 22.012C30.9259 22.0651 30.7188 22.1671 30.5414 22.3105C30.364 22.4539 30.2209 22.6351 30.1226 22.8409C30.0242 23.0467 29.9731 23.2718 29.9729 23.4999V30.0624H29.3123C28.5367 30.0647 27.7936 30.3738 27.2452 30.9222C26.6968 31.4706 26.3877 32.2137 26.3854 32.9893L24.8235 37.8936C24.7823 38.0248 24.7725 38.1638 24.795 38.2994C24.8175 38.435 24.8716 38.5634 24.953 38.6742C25.0344 38.785 25.1408 38.875 25.2634 38.937C25.3861 38.9991 25.5217 39.0313 25.6591 39.0311H37.3404C37.4778 39.0313 37.6134 38.9991 37.7361 38.937C37.8588 38.875 37.9651 38.785 38.0465 38.6742C38.1279 38.5634 38.182 38.435 38.2045 38.2994C38.227 38.1638 38.2172 38.0248 38.176 37.8936L36.636 32.9761ZM36.636 32.9761H26.3635M31.4998 37.3205V32.9761M34.1904 32.9761L34.9866 37.3205M28.8091 32.9761L28.0129 37.3205" stroke="#252525" stroke-linecap="round" stroke-linejoin="round"/>
<defs>
<clipPath id="clip0_1_949">
<rect width="32" height="32" fill="white"/>
</clipPath>
</defs>
</svg>
