<svg width="36" height="36" viewBox="0 0 36 36" fill="none" xmlns="http://www.w3.org/2000/svg">
<g clip-path="url(#clip0_1_938)">
<path d="M32 13.22V29H4V7H22.57C22.5242 6.66862 22.5008 6.33453 22.5 6C22.501 5.665 22.524 5.331 22.57 5H4C3.46957 5 2.96086 5.21071 2.58579 5.58579C2.21071 5.96086 2 6.46957 2 7V29C2 29.5304 2.21071 30.0391 2.58579 30.4142C2.96086 30.7893 3.46957 31 4 31H32C32.5304 31 33.0391 30.7893 33.4142 30.4142C33.7893 30.0391 34 29.5304 34 29V12.34C33.38 12.73 32.706 13.026 32 13.22Z" fill="#252525"/>
<path d="M8 10H23.728C24.1042 10.595 24.5627 11.1336 25.09 11.6H21.9V17.2H26V12.287C26.6182 12.6836 27.2923 12.9853 28 13.182V26H8V10ZM9.6 24H14.1V18.8H9.6V24ZM14.1 11.6H9.6V17.2H14.1V11.6ZM26 24V18.8H21.9V24H26ZM15.7 11.6V17.2H20.3V11.6H15.7ZM15.7 24H20.3V18.8H15.7V24Z" fill="#252525"/>
<path d="M30 11C32.7614 11 35 8.76142 35 6C35 3.23858 32.7614 1 30 1C27.2386 1 25 3.23858 25 6C25 8.76142 27.2386 11 30 11Z" fill="#252525"/>
</g>
<defs>
<clipPath id="clip0_1_938">
<rect width="36" height="36" fill="white"/>
</clipPath>
</defs>
</svg>
