<svg width="38" height="38" viewBox="0 0 38 38" fill="none" xmlns="http://www.w3.org/2000/svg">
<path d="M4.75065 34.2C3.87982 34.2 3.1346 33.8902 2.51498 33.2706C1.89432 32.6499 1.58398 31.9041 1.58398 31.0333V19.95C1.58398 19.5014 1.73598 19.1251 2.03998 18.8211C2.34293 18.5181 2.71871 18.3666 3.16732 18.3666H34.834C35.2826 18.3666 35.6584 18.5181 35.9613 18.8211C36.2653 19.1251 36.4173 19.5014 36.4173 19.95V31.0333C36.4173 31.9041 36.1075 32.6499 35.4879 33.2706C34.8672 33.8902 34.1215 34.2 33.2507 34.2H4.75065ZM4.75065 31.0333H33.2507V21.5333H4.75065V31.0333ZM11.084 29.45C9.76454 29.45 8.64301 28.9882 7.7194 28.0646C6.79579 27.1409 6.33398 26.0194 6.33398 24.7V12.0333C6.33398 11.5847 6.48546 11.2084 6.7884 10.9044C7.0924 10.6014 7.46871 10.45 7.91732 10.45C8.36593 10.45 8.74223 10.6014 9.04623 10.9044C9.34918 11.2084 9.50065 11.5847 9.50065 12.0333V24.7C9.50065 25.1486 9.65212 25.5244 9.95507 25.8273C10.2591 26.1313 10.6354 26.2833 11.084 26.2833C11.5326 26.2833 11.9089 26.1313 12.2129 25.8273C12.5158 25.5244 12.6673 25.1486 12.6673 24.7V15.2C12.6673 13.8805 13.1291 12.759 14.0527 11.8354C14.9763 10.9118 16.0979 10.45 17.4173 10.45C18.7368 10.45 19.8583 10.9118 20.7819 11.8354C21.7055 12.759 22.1673 13.8805 22.1673 15.2V24.7C22.1673 25.1486 22.3193 25.5244 22.6233 25.8273C22.9263 26.1313 23.302 26.2833 23.7507 26.2833C24.1993 26.2833 24.5756 26.1313 24.8796 25.8273C25.1825 25.5244 25.334 25.1486 25.334 24.7V13.6166C25.334 12.2972 25.7958 11.1757 26.7194 10.2521C27.643 9.32844 28.7645 8.86663 30.084 8.86663H31.9444L31.1923 8.11455C30.8757 7.79788 30.7173 7.42158 30.7173 6.98563C30.7173 6.55075 30.8757 6.17497 31.1923 5.8583C31.509 5.54163 31.8784 5.3833 32.3007 5.3833C32.7229 5.3833 33.0923 5.54163 33.409 5.8583L36.8527 9.30205C37.1694 9.61872 37.3277 9.99502 37.3277 10.431C37.3277 10.8659 37.1694 11.2416 36.8527 11.5583L33.409 15.0021C33.1187 15.2923 32.7625 15.4311 32.3402 15.4185C31.918 15.4047 31.5486 15.2527 31.2319 14.9625C30.9416 14.6722 30.7965 14.3027 30.7965 13.8541C30.7965 13.4055 30.9416 13.0361 31.2319 12.7458L31.9444 12.0333H30.084C29.6354 12.0333 29.2596 12.1848 28.9567 12.4877C28.6527 12.7917 28.5007 13.168 28.5007 13.6166V24.7C28.5007 26.0194 28.0388 27.1409 27.1152 28.0646C26.1916 28.9882 25.0701 29.45 23.7507 29.45C22.4312 29.45 21.3097 28.9882 20.3861 28.0646C19.4625 27.1409 19.0007 26.0194 19.0007 24.7V15.2C19.0007 14.7514 18.8492 14.3751 18.5462 14.0711C18.2422 13.7681 17.8659 13.6166 17.4173 13.6166C16.9687 13.6166 16.5929 13.7681 16.29 14.0711C15.986 14.3751 15.834 14.7514 15.834 15.2V24.7C15.834 26.0194 15.3722 27.1409 14.4486 28.0646C13.525 28.9882 12.4034 29.45 11.084 29.45Z" fill="#252525"/>
</svg>
