<svg width="47" height="42" viewBox="0 0 47 42" fill="none" xmlns="http://www.w3.org/2000/svg">
<path d="M4.86133 18.772C4.86133 16.796 5.25133 14.898 6.01833 13.091C6.78533 11.284 7.83833 9.73697 9.13833 8.42397C10.4383 7.11097 11.9983 6.07097 13.8053 5.30397C15.6123 4.53697 17.4973 4.14697 19.4863 4.14697C21.4753 4.14697 23.3603 4.53697 25.1673 5.30397C26.9743 6.07097 28.5343 7.12397 29.8473 8.42397C31.1603 9.72397 32.2003 11.284 32.9673 13.091C33.7343 14.898 34.1243 16.783 34.1243 18.772C34.1243 20.761 33.7343 22.646 32.9673 24.453C32.2003 26.26 31.1473 27.82 29.8473 29.133C28.5473 30.446 26.9873 31.486 25.1673 32.253C23.3473 33.02 21.4623 33.41 19.4863 33.41C17.5103 33.41 15.6123 33.02 13.8053 32.253C11.9983 31.486 10.4513 30.433 9.13833 29.133C7.82533 27.833 6.78533 26.273 6.01833 24.453C5.25133 22.633 4.86133 20.761 4.86133 18.772ZM19.2393 31.863H19.4863C21.2673 31.863 22.9573 31.512 24.5693 30.823C26.1813 30.134 27.5723 29.198 28.7423 28.028C29.9123 26.858 30.8353 25.467 31.5373 23.855C32.2393 22.243 32.5773 20.553 32.5773 18.772C32.5773 17.004 32.2263 15.314 31.5373 13.702C30.8483 12.09 29.9123 10.699 28.7423 9.52897C27.5723 8.35897 26.1813 7.43597 24.5693 6.73397C22.9573 6.03197 21.2673 5.69397 19.4863 5.69397H19.2393V31.863Z" fill="#252525"/>
<rect x="24" y="19" width="23" height="21" rx="3" fill="white"/>
<path d="M24 27L26 29C30.97 24.03 39.03 24.03 44 29L46 27C39.93 20.93 30.08 20.93 24 27ZM32 35L35 38L38 35C37.6064 34.6054 37.1388 34.2923 36.624 34.0786C36.1092 33.865 35.5574 33.755 35 33.755C34.4426 33.755 33.8908 33.865 33.376 34.0786C32.8612 34.2923 32.3936 34.6054 32 35ZM28 31L30 33C31.3265 31.6746 33.1249 30.9302 35 30.9302C36.8751 30.9302 38.6735 31.6746 40 33L42 31C38.14 27.14 31.87 27.14 28 31Z" fill="#252525"/>
</svg>
