<svg width="46" height="46" viewBox="0 0 46 46" fill="none" xmlns="http://www.w3.org/2000/svg">
<g clip-path="url(#clip0_1_908)">
<path d="M23.181 3.87012C23.4766 3.87022 23.7616 3.97988 23.981 4.17791C24.2004 4.37594 24.3385 4.64826 24.3688 4.94225L24.3745 5.06456L24.3736 12.494L29.267 8.19496C29.3845 8.0896 29.5218 8.00858 29.6708 7.95659C29.8199 7.90461 29.9778 7.88268 30.1353 7.89208C30.2929 7.90147 30.4471 7.94201 30.5889 8.01135C30.7307 8.08069 30.8573 8.17744 30.9615 8.29603C31.0657 8.41462 31.1454 8.55268 31.1959 8.70223C31.2464 8.85179 31.2667 9.00988 31.2558 9.16735C31.2448 9.32482 31.2028 9.47856 31.132 9.61968C31.0613 9.76079 30.9633 9.88649 30.8436 9.9895L24.3745 15.6741L24.3717 21.9779H30.6831L36.3687 15.5107C36.5629 15.2897 36.832 15.1481 37.1241 15.1132C37.4163 15.0783 37.7111 15.1524 37.952 15.3215L38.0543 15.4018C38.2753 15.596 38.4169 15.865 38.4518 16.1572C38.4867 16.4494 38.4125 16.7442 38.2435 16.9851L38.1632 17.0883L33.8632 21.9769H41.2907C41.9099 21.9769 42.4183 22.448 42.4794 23.05L42.4852 23.1723C42.4851 23.4679 42.3754 23.7529 42.1774 23.9723C41.9794 24.1917 41.707 24.3298 41.413 24.3601L41.2917 24.3668H33.8594L38.1594 29.2611C38.3536 29.4823 38.4594 29.7673 38.4564 30.0617C38.4534 30.356 38.3419 30.6388 38.1431 30.856L38.0504 30.9467C37.8294 31.1414 37.5442 31.2475 37.2496 31.2447C36.9551 31.2419 36.672 31.1303 36.4547 30.9314L36.3639 30.8378L30.6783 24.3677L24.3707 24.3668L24.3698 30.6735L30.8436 36.3619C31.0647 36.5561 31.2062 36.8252 31.2412 37.1174C31.2761 37.4096 31.2019 37.7044 31.0328 37.9452L30.9526 38.0475C30.7584 38.2687 30.4895 38.4104 30.1973 38.4455C29.9051 38.4806 29.6102 38.4066 29.3692 38.2376L29.267 38.1564L24.3698 33.8535L24.3678 41.2859C24.3677 41.5814 24.2581 41.8664 24.0601 42.0858C23.862 42.3052 23.5897 42.4433 23.2957 42.4736L23.1734 42.4803C22.8777 42.4802 22.5926 42.3704 22.3732 42.1721C22.1538 41.9739 22.0157 41.7014 21.9856 41.4072L21.979 41.2849V33.8593L17.0942 38.1564C16.8562 38.3656 16.5449 38.4717 16.2287 38.4514C15.9125 38.431 15.6173 38.2859 15.4081 38.048C15.1989 37.81 15.0928 37.4986 15.1131 37.1824C15.1334 36.8662 15.2786 36.5711 15.5165 36.3619L21.9809 30.6782V24.3677H16.1118C16.0881 24.4015 16.0626 24.4341 16.0354 24.4652L9.99438 31.3404C9.78431 31.5748 9.49023 31.7168 9.17605 31.7355C8.86188 31.7543 8.553 31.6482 8.31657 31.4405C8.08013 31.2328 7.93523 30.9401 7.91338 30.6261C7.89152 30.3122 7.99447 30.0023 8.19984 29.7638L12.9394 24.3677L5.06944 24.3687C4.77374 24.3688 4.4885 24.2593 4.26891 24.0612C4.04933 23.8632 3.91101 23.5907 3.88073 23.2966L3.875 23.1742C3.875 22.556 4.34418 22.0467 4.94713 21.9865L5.06944 21.9798H12.0526L8.19984 17.589C8.09545 17.4713 8.01536 17.3341 7.96416 17.1853C7.91297 17.0365 7.89168 16.879 7.90152 16.722C7.91136 16.5649 7.95214 16.4113 8.02152 16.2701C8.09089 16.1288 8.18749 16.0027 8.30576 15.8989C8.42404 15.7951 8.56166 15.7157 8.71071 15.6653C8.85977 15.6148 9.01733 15.5943 9.17433 15.6049C9.33133 15.6156 9.48468 15.6571 9.62558 15.7272C9.76647 15.7973 9.89213 15.8945 9.99533 16.0133L15.2308 21.9789H21.9828V15.6712L15.5165 9.98567C15.2955 9.79141 15.1539 9.52239 15.119 9.23019C15.0841 8.93799 15.1583 8.64319 15.3273 8.40232L15.4076 8.29912C15.602 8.07822 15.8711 7.93685 16.1633 7.90211C16.4555 7.86737 16.7502 7.94171 16.991 8.11087L17.0942 8.19114L21.9847 12.4911L21.9856 5.06456C21.9856 4.48741 22.3956 4.00581 22.9393 3.89401L23.0578 3.87585L23.181 3.87012Z" fill="#252525"/>
<rect x="21.9785" y="21.9778" width="27.7111" height="27.7111" rx="1" fill="white"/>
<path d="M44.9104 37.0875V34.5792H42.2892C42.1013 33.4627 41.6621 32.4034 41.0049 31.4814L42.8586 29.6253L41.0852 27.8519L39.2303 29.7068C38.3081 29.0489 37.2484 28.6093 36.1312 28.4213V25.8H33.6229V28.4213C32.5064 28.6091 31.4471 29.0483 30.5251 29.7055L28.669 27.8519L26.8956 29.6253L28.7505 31.4802C28.0928 32.4025 27.6532 33.4622 27.465 34.5792H24.8438V37.0875H27.465C27.653 38.2041 28.0921 39.2633 28.7492 40.1853L26.8956 42.0415L28.669 43.8149L30.5239 41.96C31.4461 42.6179 32.5058 43.0575 33.6229 43.2455V45.8667H36.1312V43.2455C37.2478 43.0576 38.3071 42.6185 39.229 41.9612L41.0852 43.8149L42.8586 42.0415L41.0037 40.1866C41.6615 39.2643 42.1011 38.2046 42.2892 37.0875H44.9104ZM34.8771 40.85C33.8849 40.85 32.915 40.5558 32.09 40.0046C31.265 39.4533 30.622 38.6699 30.2423 37.7532C29.8626 36.8365 29.7632 35.8278 29.9568 34.8547C30.1504 33.8815 30.6282 32.9877 31.3298 32.2861C32.0314 31.5845 32.9252 31.1067 33.8984 30.9131C34.8715 30.7195 35.8802 30.8189 36.7969 31.1986C37.7136 31.5783 38.497 32.2213 39.0483 33.0463C39.5995 33.8713 39.8937 34.8412 39.8937 35.8334C39.8921 37.1634 39.363 38.4384 38.4226 39.3789C37.4821 40.3193 36.2071 40.8484 34.8771 40.85Z" fill="#252525"/>
</g>
<defs>
<clipPath id="clip0_1_908">
<rect width="45.8667" height="45.8667" fill="white"/>
</clipPath>
</defs>
</svg>
