<svg width="49" height="49" viewBox="0 0 49 49" fill="none" xmlns="http://www.w3.org/2000/svg">
<path d="M42.875 7.35V41.65C42.875 41.9749 42.7459 42.2865 42.5162 42.5162C42.2865 42.7459 41.9749 42.875 41.65 42.875H7.35C7.02511 42.875 6.71353 42.7459 6.48379 42.5162C6.25406 42.2865 6.125 41.9749 6.125 41.65V7.35C6.125 7.02511 6.25406 6.71353 6.48379 6.48379C6.71353 6.25406 7.02511 6.125 7.35 6.125H41.65C41.9749 6.125 42.2865 6.25406 42.5162 6.48379C42.7459 6.71353 42.875 7.02511 42.875 7.35Z" stroke="#252525" stroke-width="2" stroke-linecap="round" stroke-linejoin="round"/>
<path d="M16.333 12.25C16.333 12.25 11.2288 18.375 16.333 24.5C21.4371 30.625 16.333 36.75 16.333 36.75M24.4996 12.25C24.4996 12.25 19.3955 18.375 24.4996 24.5C29.6038 30.625 24.4996 36.75 24.4996 36.75M32.6663 12.25C32.6663 12.25 27.5621 18.375 32.6663 24.5C37.7705 30.625 32.6663 36.75 32.6663 36.75" stroke="#252525" stroke-width="2" stroke-linecap="round" stroke-linejoin="round"/>
</svg>
