<svg width="40" height="40" viewBox="0 0 40 40" fill="none" xmlns="http://www.w3.org/2000/svg">
<path fill-rule="evenodd" clip-rule="evenodd" d="M36.9328 8.71261L34.9828 8.25261L29.7128 13.4926L26.7278 10.4526L31.8678 5.06011L31.4178 3.08011C30.3316 2.71673 29.1956 2.52444 28.0503 2.51011C26.801 2.4909 25.561 2.72918 24.4078 3.21011C23.2943 3.71413 22.2878 4.42701 21.4428 5.31011C20.5022 6.20114 19.7572 7.27813 19.2553 8.47261C18.2889 10.8498 18.2889 13.5104 19.2553 15.8876C14.0434 21.0151 8.8988 26.2105 3.82281 31.4726C3.29781 32.1601 3.04781 33.0176 3.11281 33.8801C3.16404 34.8078 3.58123 35.6772 4.27281 36.2976C4.58281 36.6351 4.95281 36.9151 5.36531 37.1176C5.79031 37.3051 6.24781 37.4126 6.71031 37.4351C7.50031 37.4201 8.25781 37.1201 8.84531 36.5926C12.7153 32.9501 20.1303 25.4676 24.3428 21.0826C25.4853 21.5676 26.7128 21.8176 27.9528 21.8151C29.201 21.8141 30.4364 21.563 31.5858 21.0765C32.7353 20.59 33.7756 19.878 34.6453 18.9826C36.4317 17.1608 37.4294 14.7091 37.4228 12.1576C37.4517 10.99 37.2861 9.82581 36.9328 8.71261ZM7.33281 34.8201C7.23659 34.9056 7.1206 34.9657 6.99531 34.9951C6.87206 35.0164 6.74606 35.0164 6.62281 34.9951C6.49359 34.9754 6.3705 34.9267 6.26281 34.8526C6.14725 34.785 6.04954 34.6907 5.97781 34.5776C5.62781 34.2201 5.30031 33.5401 5.62781 33.1576C9.05281 29.5151 16.1053 22.3951 20.5153 18.0426C20.7653 18.3726 21.0403 18.6876 21.3353 18.9826C21.6303 19.2901 21.9478 19.5751 22.2853 19.8351C18.0203 24.2101 11.0628 31.2451 7.33281 34.8201ZM35.1278 12.1576C35.1328 14.0701 34.3878 15.9076 33.0478 17.2776C31.7106 18.5893 29.9122 19.3242 28.0391 19.3242C26.1659 19.3242 24.3675 18.5893 23.0303 17.2776C22.0503 16.2548 21.3808 14.9748 21.0998 13.5865C20.8187 12.1981 20.9377 10.7585 21.4428 9.43511C21.779 8.53444 22.3006 7.71437 22.9737 7.02793C23.6468 6.34149 24.4564 5.80396 25.3503 5.45011C26.199 5.09488 27.1102 4.91298 28.0303 4.91511H28.6653L24.1228 9.59761V11.3376L28.8603 16.0526H30.5103L35.1278 11.5126V12.1576ZM8.10031 16.7201H11.9278L13.6903 18.5126L15.3853 16.8276L13.7228 15.1326V15.0251L13.8653 10.9026L13.3153 9.81011L6.16531 5.10511L4.68781 5.27011L2.61031 7.39261L2.44531 8.89011L7.04031 16.1851L8.10031 16.7201ZM5.73781 7.64011L11.5228 11.4501L11.4253 14.2576H8.73531L5.00531 8.35261L5.73781 7.64011ZM23.5003 25.0401L25.1853 23.3576L32.9503 31.3201C33.6044 32.0075 33.9691 32.92 33.9691 33.8689C33.9691 34.8177 33.6044 35.7302 32.9503 36.4176C32.4585 36.9225 31.8261 37.2677 31.1354 37.4081C30.4447 37.5486 29.7277 37.4778 29.0778 37.2051C28.663 37.0211 28.291 36.753 27.9853 36.4176L20.1303 28.4101L21.8278 26.7151L29.6578 34.7001C29.7631 34.8162 29.8941 34.9061 30.0403 34.9626C30.3281 35.0795 30.6501 35.0795 30.9378 34.9626C31.084 34.9061 31.215 34.8162 31.3203 34.7001C31.4297 34.5917 31.5149 34.4613 31.5703 34.3176C31.6277 34.1709 31.6582 34.0151 31.6603 33.8576C31.6578 33.7004 31.6282 33.5448 31.5728 33.3976C31.5174 33.2539 31.4322 33.1235 31.3228 33.0151L23.5003 25.0401Z" fill="#252525"/>
</svg>
