<svg width="48" height="48" viewBox="0 0 48 48" fill="none" xmlns="http://www.w3.org/2000/svg">
<path d="M45 34.5V31.5H41.865C41.6402 30.1646 41.115 28.8977 40.329 27.795L42.546 25.575L40.425 23.454L38.2065 25.6725C37.1035 24.8857 35.8361 24.3599 34.5 24.135V21H31.5V24.135C30.1646 24.3597 28.8977 24.8849 27.795 25.671L25.575 23.454L23.454 25.575L25.6725 27.7935C24.8859 28.8966 24.3601 30.164 24.135 31.5H21V34.5H24.135C24.3599 35.8354 24.8851 37.1022 25.671 38.205L23.454 40.425L25.575 42.546L27.7935 40.3275C28.8965 41.1143 30.1639 41.6401 31.5 41.865V45H34.5V41.865C35.8354 41.6403 37.1023 41.1151 38.205 40.329L40.425 42.546L42.546 40.425L40.3275 38.2065C41.1142 37.1035 41.64 35.836 41.865 34.5H45ZM33 39C31.8133 39 30.6533 38.6481 29.6666 37.9888C28.6799 37.3295 27.9108 36.3925 27.4567 35.2961C27.0026 34.1997 26.8838 32.9933 27.1153 31.8295C27.3468 30.6656 27.9182 29.5965 28.7574 28.7574C29.5965 27.9182 30.6656 27.3468 31.8295 27.1153C32.9933 26.8838 34.1997 27.0026 35.2961 27.4567C36.3925 27.9108 37.3295 28.6799 37.9888 29.6666C38.6481 30.6533 39 31.8133 39 33C38.998 34.5907 38.3652 36.1157 37.2404 37.2404C36.1157 38.3652 34.5907 38.998 33 39Z" fill="#252525"/>
<path d="M42 9C42 8.20435 41.6839 7.44129 41.1213 6.87868C40.5587 6.31607 39.7957 6 39 6H33V3H30V6H18V3H15V6H9C8.20435 6 7.44129 6.31607 6.87868 6.87868C6.31607 7.44129 6 8.20435 6 9V39C6 39.7957 6.31607 40.5587 6.87868 41.1213C7.44129 41.6839 8.20435 42 9 42H15V39H9V9H15V12H18V9H30V12H33V9H39V18H42V9Z" fill="#252525"/>
</svg>
