<svg width="50" height="50" viewBox="0 0 50 50" fill="none" xmlns="http://www.w3.org/2000/svg">
<path d="M36.1914 29.082C35.8309 31.4602 34.7188 33.6607 33.0179 35.3616C31.317 37.0625 29.1165 38.1745 26.7383 38.5351H26.5625C26.2731 38.5266 25.9971 38.4112 25.7877 38.2112C25.5783 38.0112 25.4503 37.7408 25.4285 37.4521C25.4066 37.1634 25.4925 36.8768 25.6694 36.6476C25.8463 36.4184 26.1019 36.2628 26.3867 36.2109C28.265 35.9042 29.9996 35.0152 31.3453 33.6695C32.6911 32.3237 33.5801 30.5892 33.8867 28.7109C33.8947 28.547 33.9369 28.3866 34.0108 28.2402C34.0846 28.0937 34.1884 27.9643 34.3154 27.8605C34.4424 27.7566 34.5897 27.6806 34.748 27.6373C34.9062 27.594 35.0718 27.5844 35.2339 27.6091C35.3961 27.6339 35.5513 27.6924 35.6894 27.7809C35.8275 27.8694 35.9455 27.9859 36.0358 28.1229C36.1261 28.2599 36.1865 28.4143 36.2133 28.5761C36.2401 28.738 36.2327 28.9037 36.1914 29.0624V29.082ZM42.5781 27.3437C42.5781 32.0057 40.7262 36.4767 37.4296 39.7733C34.1331 43.0698 29.662 44.9218 25 44.9218C20.338 44.9218 15.8669 43.0698 12.5704 39.7733C9.27385 36.4767 7.42188 32.0057 7.42188 27.3437C7.42188 22.9101 9.33594 17.7929 13.0859 12.1093C13.267 11.8566 13.5383 11.6831 13.8438 11.625C14.1492 11.5668 14.4653 11.6283 14.7266 11.7968L21.4062 16.2499L27.6172 3.18352C27.7 3.01543 27.8214 2.86925 27.9713 2.75686C28.1213 2.64447 28.2956 2.56903 28.4802 2.53669C28.6648 2.50434 28.8544 2.51598 29.0336 2.57068C29.2128 2.62538 29.3767 2.72159 29.5117 2.85149C36.2891 9.62883 42.5781 17.2851 42.5781 27.3437ZM40.2344 27.3437C40.2344 18.7109 34.9805 11.8163 29.0234 5.70305L22.9297 18.4765C22.86 18.6291 22.7573 18.7644 22.6289 18.8725C22.5005 18.9806 22.3498 19.0588 22.1875 19.1015C22.0261 19.1452 21.8571 19.1539 21.6921 19.127C21.527 19.1 21.3696 19.0381 21.2305 18.9452L14.4141 14.3945C11.3281 19.2773 9.76562 23.6327 9.76562 27.3437C9.76562 31.3841 11.3707 35.259 14.2277 38.116C17.0847 40.973 20.9596 42.578 25 42.578C29.0404 42.578 32.9153 40.973 35.7723 38.116C38.6293 35.259 40.2344 31.3841 40.2344 27.3437Z" fill="#252525"/>
</svg>
