<svg width="46" height="46" viewBox="0 0 46 46" fill="none" xmlns="http://www.w3.org/2000/svg">
<path d="M23.2489 3.88135C23.5453 3.88145 23.8311 3.99143 24.0511 4.19003C24.2712 4.38864 24.4097 4.66176 24.4401 4.9566L24.4458 5.07926L24.4449 12.5303L29.3525 8.21876C29.4704 8.1131 29.6081 8.03184 29.7575 7.9797C29.907 7.92757 30.0654 7.90557 30.2234 7.915C30.3814 7.92442 30.536 7.96508 30.6782 8.03462C30.8205 8.10416 30.9475 8.20119 31.052 8.32013C31.1565 8.43906 31.2364 8.57752 31.287 8.72751C31.3377 8.8775 31.3581 9.03605 31.3471 9.19398C31.3361 9.35191 31.2939 9.50609 31.223 9.64762C31.152 9.78915 31.0537 9.91521 30.9338 10.0185L24.4458 15.7196L24.443 22.0418H30.7728L36.4748 15.5558C36.6697 15.3341 36.9395 15.1921 37.2325 15.1571C37.5256 15.1221 37.8212 15.1965 38.0628 15.366L38.1653 15.4465C38.387 15.6413 38.529 15.9111 38.564 16.2042C38.599 16.4972 38.5246 16.7929 38.3551 17.0345L38.2746 17.138L33.9621 22.0408H41.4112C42.0322 22.0408 42.5421 22.5133 42.6034 23.117L42.6091 23.2397C42.609 23.5361 42.4991 23.8219 42.3004 24.0419C42.1018 24.262 41.8287 24.4005 41.5339 24.4309L41.4122 24.4376H33.9583L38.2708 29.3462C38.4656 29.5679 38.5717 29.8538 38.5687 30.149C38.5657 30.4442 38.4538 30.7279 38.2545 30.9456L38.1615 31.0367C37.9398 31.2319 37.6538 31.3383 37.3584 31.3355C37.063 31.3327 36.779 31.2208 36.5611 31.0213L36.4701 30.9274L30.768 24.4386L24.442 24.4376L24.4411 30.7626L30.9338 36.4676C31.1554 36.6624 31.2974 36.9322 31.3324 37.2252C31.3674 37.5183 31.2931 37.8139 31.1235 38.0555L31.043 38.1581C30.8483 38.3799 30.5786 38.522 30.2855 38.5572C29.9925 38.5924 29.6967 38.5182 29.4551 38.3488L29.3525 38.2673L24.4411 33.9519L24.4391 41.4058C24.439 41.7023 24.3291 41.9881 24.1304 42.2081C23.9318 42.4281 23.6587 42.5667 23.3639 42.5971L23.2412 42.6038C22.9447 42.6036 22.6587 42.4935 22.4387 42.2947C22.2186 42.0959 22.0801 41.8226 22.05 41.5276L22.0433 41.4049V33.9577L17.1443 38.2673C16.9056 38.4771 16.5934 38.5835 16.2763 38.5631C15.9592 38.5427 15.6631 38.3972 15.4533 38.1585C15.2435 37.9199 15.1371 37.6076 15.1575 37.2905C15.1779 36.9734 15.3234 36.6774 15.5621 36.4676L22.0452 30.7674V24.4386H16.1591C16.1353 24.4724 16.1097 24.5051 16.0825 24.5363L10.0239 31.4315C9.8132 31.6666 9.51827 31.809 9.20318 31.8277C8.88809 31.8465 8.57832 31.7402 8.3412 31.5319C8.10407 31.3235 7.95876 31.03 7.93684 30.7151C7.91492 30.4003 8.01816 30.0894 8.22414 29.8503L12.9775 24.4386L5.08464 24.4395C4.78807 24.4396 4.502 24.3298 4.28178 24.1311C4.06155 23.9325 3.92284 23.6593 3.89247 23.3643L3.88672 23.2416C3.88672 22.6216 4.35726 22.1108 4.96197 22.0504L5.08464 22.0437H12.0881L8.22414 17.6401C8.11944 17.522 8.03911 17.3844 7.98777 17.2352C7.93643 17.086 7.91507 16.9281 7.92495 16.7705C7.93482 16.613 7.97571 16.459 8.04529 16.3174C8.11486 16.1757 8.21174 16.0492 8.33036 15.9451C8.44898 15.841 8.587 15.7614 8.73649 15.7108C8.88598 15.6602 9.04399 15.6396 9.20145 15.6503C9.35891 15.661 9.51271 15.7026 9.65401 15.7729C9.79532 15.8432 9.92134 15.9407 10.0248 16.0598L15.2756 22.0427H22.0471V15.7168L15.5621 10.0147C15.3404 9.81985 15.1984 9.55005 15.1634 9.257C15.1284 8.96396 15.2028 8.6683 15.3723 8.42672L15.4528 8.32322C15.6478 8.10169 15.9177 7.9599 16.2107 7.92506C16.5037 7.89022 16.7993 7.96478 17.0408 8.13443L17.1443 8.21493L22.0491 12.5274L22.05 5.07926C22.05 4.50043 22.4611 4.01743 23.0064 3.90531L23.1253 3.8871L23.2489 3.88135Z" fill="#252525"/>
</svg>
