<svg width="48" height="48" viewBox="0 0 48 48" fill="none" xmlns="http://www.w3.org/2000/svg">
<g clip-path="url(#clip0_1_925)">
<path d="M41.806 8.95831C41.806 8.16634 41.4914 7.40681 40.9314 6.84681C40.3714 6.2868 39.6118 5.9722 38.8199 5.9722H32.8477V2.98608H29.8615V5.9722H17.9171V2.98608H14.931V5.9722H8.95877C8.1668 5.9722 7.40727 6.2868 6.84727 6.84681C6.28726 7.40681 5.97266 8.16634 5.97266 8.95831V38.8194C5.97266 39.6114 6.28726 40.3709 6.84727 40.9309C7.40727 41.4909 8.1668 41.8055 8.95877 41.8055H14.931V38.8194H8.95877V8.95831H14.931V11.9444H17.9171V8.95831H29.8615V11.9444H32.8477V8.95831H38.8199V17.9166H41.806V8.95831Z" fill="#252525"/>
<path d="M34.0723 22.4048C34.2508 22.4048 34.423 22.4711 34.5556 22.5907C34.6881 22.7104 34.7716 22.8749 34.7899 23.0525L34.7933 23.1264L34.7928 27.6151L37.7492 25.0177C37.8202 24.9541 37.9031 24.9051 37.9932 24.8737C38.0832 24.8423 38.1786 24.829 38.2738 24.8347C38.369 24.8404 38.4622 24.8649 38.5478 24.9068C38.6335 24.9487 38.71 25.0071 38.773 25.0788C38.8359 25.1504 38.8841 25.2338 38.9146 25.3242C38.9451 25.4145 38.9574 25.5101 38.9508 25.6052C38.9441 25.7003 38.9187 25.7932 38.876 25.8785C38.8332 25.9637 38.774 26.0397 38.7018 26.1019L34.7933 29.5364L34.7916 33.3449H38.6048L42.0398 29.4376C42.1572 29.3041 42.3197 29.2186 42.4962 29.1975C42.6728 29.1764 42.8509 29.2212 42.9964 29.3233L43.0582 29.3718C43.1917 29.4892 43.2772 29.6517 43.2983 29.8283C43.3194 30.0048 43.2746 30.1829 43.1725 30.3284L43.124 30.3908L40.5261 33.3443H45.0135C45.3876 33.3443 45.6948 33.6289 45.7317 33.9926L45.7352 34.0665C45.7351 34.2451 45.6689 34.4173 45.5492 34.5498C45.4296 34.6824 45.2651 34.7659 45.0874 34.7841L45.0141 34.7882H40.5238L43.1217 37.7452C43.2391 37.8788 43.303 38.051 43.3012 38.2288C43.2993 38.4067 43.2319 38.5776 43.1119 38.7087L43.0559 38.7636C42.9223 38.8812 42.75 38.9453 42.572 38.9436C42.3941 38.9419 42.223 38.8745 42.0918 38.7543L42.0369 38.6978L38.6019 34.7888L34.791 34.7882L34.7905 38.5985L38.7018 42.0352C38.8353 42.1526 38.9208 42.3151 38.9419 42.4917C38.963 42.6682 38.9182 42.8463 38.8161 42.9918L38.7676 43.0536C38.6503 43.1872 38.4878 43.2729 38.3112 43.2941C38.1347 43.3153 37.9566 43.2706 37.811 43.1685L37.7492 43.1194L34.7905 40.5198L34.7893 45.0101C34.7892 45.1887 34.723 45.3609 34.6033 45.4934C34.4837 45.626 34.3192 45.7094 34.1415 45.7277L34.0677 45.7318C33.889 45.7317 33.7167 45.6654 33.5842 45.5456C33.4516 45.4258 33.3682 45.2612 33.3501 45.0834L33.346 45.0095V40.5232L30.3948 43.1194C30.251 43.2458 30.0629 43.3099 29.8719 43.2976C29.6808 43.2853 29.5025 43.1977 29.3761 43.0539C29.2497 42.9101 29.1856 42.722 29.1979 42.531C29.2102 42.3399 29.2979 42.1616 29.4416 42.0352L33.3472 38.6014V34.7888H29.8013C29.7869 34.8092 29.7715 34.8288 29.7551 34.8477L26.1053 39.0014C25.9784 39.143 25.8007 39.2288 25.6109 39.2401C25.4211 39.2514 25.2345 39.1874 25.0916 39.0619C24.9488 38.9364 24.8613 38.7596 24.8481 38.5699C24.8349 38.3802 24.897 38.1929 25.0211 38.0489L27.8846 34.7888L23.1298 34.7893C22.9512 34.7894 22.7789 34.7232 22.6462 34.6036C22.5135 34.4839 22.43 34.3193 22.4117 34.1416L22.4082 34.0677C22.4082 33.6942 22.6917 33.3865 23.056 33.3501L23.1298 33.3461H27.3489L25.0211 30.6933C24.9581 30.6222 24.9097 30.5392 24.8787 30.4493C24.8478 30.3594 24.8349 30.2643 24.8409 30.1694C24.8468 30.0745 24.8715 29.9818 24.9134 29.8964C24.9553 29.8111 25.0137 29.7349 25.0851 29.6722C25.1566 29.6095 25.2397 29.5615 25.3298 29.531C25.4198 29.5005 25.515 29.4882 25.6099 29.4946C25.7047 29.501 25.7974 29.5261 25.8825 29.5684C25.9676 29.6108 26.0436 29.6695 26.1059 29.7413L29.269 33.3455H33.3483V29.5346L29.4416 26.0996C29.3081 25.9822 29.2226 25.8197 29.2015 25.6432C29.1804 25.4666 29.2252 25.2885 29.3273 25.143L29.3758 25.0806C29.4933 24.9472 29.6558 24.8618 29.8324 24.8408C30.0089 24.8198 30.187 24.8647 30.3324 24.9669L30.3948 25.0154L33.3495 27.6133L33.3501 23.1264C33.3501 22.7777 33.5977 22.4868 33.9262 22.4192L33.9978 22.4082L34.0723 22.4048Z" fill="#252525"/>
</g>
<defs>
<clipPath id="clip0_1_925">
<rect width="47.7778" height="47.7778" fill="white"/>
</clipPath>
</defs>
</svg>
