<svg width="44" height="44" viewBox="0 0 44 44" fill="none" xmlns="http://www.w3.org/2000/svg">
<path d="M40.3327 20.1667V6.6C40.3327 6.30826 40.2168 6.02847 40.0105 5.82218C39.8042 5.61589 39.5244 5.5 39.2327 5.5H4.76602C4.47428 5.5 4.19449 5.61589 3.9882 5.82218C3.78191 6.02847 3.66602 6.30826 3.66602 6.6V20.1667M40.3327 20.1667H3.66602M40.3327 20.1667L38.8843 24.904C38.6551 25.655 38.1907 26.3126 37.5597 26.7799C36.9287 27.2473 36.1643 27.4997 35.379 27.5H32.9993M3.66602 20.1667L5.11435 24.904C5.34364 25.655 5.80798 26.3126 6.43901 26.7799C7.07004 27.2473 7.83444 27.4997 8.61968 27.5H10.9993M32.9993 12.8333H34.8327M17.416 26.5833C17.416 26.5833 17.416 39.4167 10.9993 39.4167M26.5827 26.5833C26.5827 26.5833 26.5827 39.4167 32.9993 39.4167M21.9993 26.5833V39.4167" stroke="#252525" stroke-width="1.5" stroke-linecap="round" stroke-linejoin="round"/>
</svg>
